<?xml version="1.0" standalone="no"?>
<!DOCTYPE svg PUBLIC "-//W3C//DTD SVG 20010904//EN"
 "http://www.w3.org/TR/2001/REC-SVG-20010904/DTD/svg10.dtd">
<svg version="1.0" xmlns="http://www.w3.org/2000/svg"
 width="96.000000pt" height="96.000000pt" viewBox="0 0 96.000000 96.000000"
 preserveAspectRatio="xMidYMid meet">
<metadata>
Created by potrace 1.11, written by Peter Selinger 2001-2013
</metadata>
<g transform="translate(0.000000,96.000000) scale(0.100000,-0.100000)"
fill="#000000" stroke="none">
<path d="M374 934 c-27 -13 -64 -39 -82 -57 -32 -31 -80 -110 -91 -152 -8 -28
-6 -194 3 -230 13 -54 14 -60 16 -60 1 0 3 -8 5 -19 6 -32 27 -76 36 -76 5 0
9 14 9 30 0 42 0 43 13 59 6 7 12 20 14 29 1 9 7 18 12 20 6 2 11 9 11 16 0 6
10 18 21 26 12 8 28 21 35 28 8 7 14 11 14 7 0 -3 9 -1 20 5 11 6 33 13 48 15
96 15 179 47 213 82 34 37 52 71 45 89 -3 8 -1 14 4 14 12 0 3 41 -13 58 -24
23 -177 17 -177 -7 0 -4 -10 -7 -22 -8 -11 -1 -25 -8 -29 -15 -5 -7 -9 -8 -9
-3 0 6 -3 6 -8 0 -4 -6 -22 -21 -40 -34 -28 -20 -32 -21 -22 -5 36 57 152 121
229 127 15 1 17 6 11 21 -13 35 -69 59 -146 62 -59 3 -79 -1 -120 -22z"/>
<path d="M752 725 c10 -11 -20 -64 -57 -99 -16 -16 -50 -38 -75 -49 -28 -12
-39 -22 -30 -25 39 -13 101 -102 103 -149 1 -18 5 -33 10 -33 4 0 5 -11 3 -25
-11 -61 23 7 51 100 27 91 29 275 3 283 -8 3 -12 1 -8 -3z"/>
<path d="M408 518 c-16 -5 -28 -15 -28 -20 0 -6 -3 -8 -7 -5 -9 10 -51 -63
-59 -104 -20 -97 1 -177 71 -271 30 -40 55 -76 55 -80 0 -5 5 -8 11 -8 7 0 18
-8 25 -17 8 -11 13 -13 14 -5 0 6 6 12 13 12 6 0 23 16 36 35 13 19 27 35 32
35 5 0 9 6 9 13 0 8 9 22 19 31 19 17 51 76 55 100 1 6 4 16 7 21 6 12 4 110
-4 140 -11 43 -41 94 -63 106 -13 7 -24 15 -24 19 0 9 -47 6 -56 -3 -4 -4 -8
-37 -10 -74 -1 -38 -3 -68 -4 -68 -1 0 -3 -21 -4 -47 -1 -42 -11 -76 -14 -46
0 7 -3 36 -6 63 -3 28 -6 76 -7 108 -3 66 -17 80 -61 65z"/>
</g>
</svg>
